<?xml version="1.0" encoding="UTF-8"?>
<!DOCTYPE svg>
<svg version="1.0" xmlns="http://www.w3.org/2000/svg"
 width="190.000000pt" height="190.000000pt" viewBox="0 0 190.000000 190.000000"
 preserveAspectRatio="xMidYMid meet">

<g transform="translate(0.000000,190.000000) scale(0.100000,-0.100000)"
fill="#000000" stroke="none">
<path d="M787 1814 c-168 -30 -331 -117 -457 -244 -345 -345 -345 -895 0
-1240 345 -345 895 -345 1240 0 345 345 345 895 0 1240 -206 207 -494 296
-783 244z m358 -108 c148 -40 307 -141 402 -255 63 -76 135 -217 160 -311 24
-90 24 -291 0 -380 -60 -223 -209 -405 -412 -506 -129 -63 -196 -79 -345 -79
-149 0 -216 16 -345 79 -159 79 -272 192 -351 351 -63 129 -79 196 -79 345 0
149 16 216 79 345 109 219 302 368 546 420 81 18 262 13 345 -9z"/>
<path d="M648 1285 c-87 -49 -50 -185 49 -185 64 1 110 54 99 114 -12 66 -91
103 -148 71z"/>
<path d="M1129 1271 c-31 -31 -39 -83 -19 -122 13 -24 61 -49 94 -49 35 0 84
45 92 85 17 93 -100 153 -167 86z"/>
<path d="M376 914 c-21 -21 -20 -52 5 -127 120 -358 553 -516 877 -320 127 77
225 203 266 342 20 68 20 86 0 105 -22 22 -53 20 -187 -14 -250 -63 -524 -63
-774 0 -134 34 -165 36 -187 14z m226 -88 c215 -55 459 -54 694 1 62 14 119
23 128 20 26 -10 18 -47 -17 -82 -35 -35 -133 -72 -257 -96 -95 -19 -328 -16
-424 5 -96 21 -203 60 -229 84 -39 35 -44 92 -8 92 9 0 60 -11 113 -24z"/>
</g>
</svg>
