<?xml version="1.0" encoding="UTF-8"?>
<!DOCTYPE svg>
<svg version="1.1" xmlns="http://www.w3.org/2000/svg" xmlns:xlink="http://www.w3.org/1999/xlink" viewBox="0 0 44.9414 28.7227">
 <g>
  <rect height="28.7227" opacity="0" width="44.9414" x="0" y="0"/>
  <path d="M22.3008 28.7227C22.957 28.7227 23.4375 28.2539 23.4375 27.5859L23.4375 1.11328C23.4375 0.46875 22.957 0.0117188 22.3008 0.0117188C21.6328 0.0117188 21.1523 0.46875 21.1523 1.11328L21.1523 27.5859C21.1523 28.2539 21.6328 28.7227 22.3008 28.7227Z" fill="black" fill-opacity="1"/>
  <path d="M18.4102 14.3555C18.4102 13.6875 17.9414 13.2188 17.2734 13.2188L6.76172 13.2188L3.67969 13.3008L8.88281 8.23828C9.11719 8.02734 9.22266 7.71094 9.22266 7.39453C9.22266 6.75 8.73047 6.28125 8.09766 6.28125C7.75781 6.28125 7.46484 6.42188 7.20703 6.69141L0.398438 13.5C0.152344 13.7461 0 14.0391 0 14.3555C0 14.6719 0.152344 14.9766 0.398438 15.2227L7.20703 22.0195C7.46484 22.2891 7.75781 22.4297 8.09766 22.4297C8.73047 22.4297 9.22266 21.9609 9.22266 21.3164C9.22266 21 9.11719 20.6836 8.88281 20.4727L3.67969 15.4219L6.76172 15.5039L17.2734 15.5039C17.9414 15.5039 18.4102 15.0352 18.4102 14.3555ZM26.1797 14.3555C26.1797 15.0352 26.6484 15.5039 27.3164 15.5039L37.8281 15.5039L40.9102 15.4219L35.707 20.4727C35.4727 20.6836 35.3672 21 35.3672 21.3164C35.3672 21.9609 35.8594 22.4297 36.4922 22.4297C36.832 22.4297 37.125 22.2891 37.3828 22.0195L44.1914 15.2227C44.4375 14.9766 44.5898 14.6719 44.5898 14.3555C44.5898 14.0391 44.4375 13.7461 44.1914 13.5L37.3828 6.69141C37.125 6.42188 36.832 6.28125 36.4922 6.28125C35.8594 6.28125 35.3672 6.75 35.3672 7.39453C35.3672 7.71094 35.4727 8.02734 35.707 8.23828L40.9102 13.3008L37.8281 13.2188L27.3164 13.2188C26.6484 13.2188 26.1797 13.6875 26.1797 14.3555Z" fill="black" fill-opacity="1"/>
 </g>
</svg>
