<?xml version="1.0" encoding="UTF-8"?>
<!DOCTYPE svg>
<svg version="1.1" xmlns="http://www.w3.org/2000/svg" xmlns:xlink="http://www.w3.org/1999/xlink" viewBox="0 0 38.0977 23.6602">
 <g>
  <rect height="23.6602" opacity="0" width="38.0977" x="0" y="0"/>
  <path d="M4.55859 23.625L33.1875 23.625C36.2109 23.625 37.7461 22.0898 37.7461 19.1016L37.7461 4.52344C37.7461 1.53516 36.2109 0 33.1875 0L4.55859 0C1.52344 0 0 1.52344 0 4.52344L0 19.1016C0 22.1016 1.52344 23.625 4.55859 23.625ZM4.60547 21.5508C2.96484 21.5508 2.07422 20.6719 2.07422 18.9961L2.07422 4.62891C2.07422 2.95312 2.96484 2.08594 4.60547 2.08594L33.1406 2.08594C34.7461 2.08594 35.6719 2.95312 35.6719 4.62891L35.6719 18.9961C35.6719 20.6719 34.7461 21.5508 33.1406 21.5508ZM6 8.23828L7.32422 8.23828C7.73438 8.23828 7.98047 7.99219 7.98047 7.58203L7.98047 6.25781C7.98047 5.84766 7.73438 5.58984 7.32422 5.58984L6 5.58984C5.58984 5.58984 5.34375 5.84766 5.34375 6.25781L5.34375 7.58203C5.34375 7.99219 5.58984 8.23828 6 8.23828ZM10.8633 8.23828L12.1875 8.23828C12.5977 8.23828 12.8555 7.99219 12.8555 7.58203L12.8555 6.25781C12.8555 5.84766 12.5977 5.58984 12.1875 5.58984L10.8633 5.58984C10.4531 5.58984 10.207 5.84766 10.207 6.25781L10.207 7.58203C10.207 7.99219 10.4531 8.23828 10.8633 8.23828ZM15.7266 8.23828L17.0508 8.23828C17.4609 8.23828 17.7188 7.99219 17.7188 7.58203L17.7188 6.25781C17.7188 5.84766 17.4609 5.58984 17.0508 5.58984L15.7266 5.58984C15.3164 5.58984 15.0703 5.84766 15.0703 6.25781L15.0703 7.58203C15.0703 7.99219 15.3164 8.23828 15.7266 8.23828ZM20.5898 8.23828L21.9141 8.23828C22.3242 8.23828 22.582 7.99219 22.582 7.58203L22.582 6.25781C22.582 5.84766 22.3242 5.58984 21.9141 5.58984L20.5898 5.58984C20.1797 5.58984 19.9336 5.84766 19.9336 6.25781L19.9336 7.58203C19.9336 7.99219 20.1797 8.23828 20.5898 8.23828ZM25.4531 8.23828L26.7773 8.23828C27.1992 8.23828 27.4453 7.99219 27.4453 7.58203L27.4453 6.25781C27.4453 5.84766 27.1992 5.58984 26.7773 5.58984L25.4531 5.58984C25.043 5.58984 24.7969 5.84766 24.7969 6.25781L24.7969 7.58203C24.7969 7.99219 25.043 8.23828 25.4531 8.23828ZM30.3164 8.23828L31.6406 8.23828C32.0625 8.23828 32.3086 7.99219 32.3086 7.58203L32.3086 6.25781C32.3086 5.84766 32.0625 5.58984 31.6406 5.58984L30.3164 5.58984C29.9062 5.58984 29.6602 5.84766 29.6602 6.25781L29.6602 7.58203C29.6602 7.99219 29.9062 8.23828 30.3164 8.23828ZM6 13.1016L7.32422 13.1016C7.73438 13.1016 7.98047 12.8555 7.98047 12.4453L7.98047 11.1211C7.98047 10.7109 7.73438 10.4648 7.32422 10.4648L6 10.4648C5.58984 10.4648 5.34375 10.7109 5.34375 11.1211L5.34375 12.4453C5.34375 12.8555 5.58984 13.1016 6 13.1016ZM10.8633 13.1016L12.1875 13.1016C12.5977 13.1016 12.8555 12.8555 12.8555 12.4453L12.8555 11.1211C12.8555 10.7109 12.5977 10.4648 12.1875 10.4648L10.8633 10.4648C10.4531 10.4648 10.207 10.7109 10.207 11.1211L10.207 12.4453C10.207 12.8555 10.4531 13.1016 10.8633 13.1016ZM15.7266 13.1016L17.0508 13.1016C17.4609 13.1016 17.7188 12.8555 17.7188 12.4453L17.7188 11.1211C17.7188 10.7109 17.4609 10.4648 17.0508 10.4648L15.7266 10.4648C15.3164 10.4648 15.0703 10.7109 15.0703 11.1211L15.0703 12.4453C15.0703 12.8555 15.3164 13.1016 15.7266 13.1016ZM20.5898 13.1016L21.9141 13.1016C22.3242 13.1016 22.582 12.8555 22.582 12.4453L22.582 11.1211C22.582 10.7109 22.3242 10.4648 21.9141 10.4648L20.5898 10.4648C20.1797 10.4648 19.9336 10.7109 19.9336 11.1211L19.9336 12.4453C19.9336 12.8555 20.1797 13.1016 20.5898 13.1016ZM25.4531 13.1016L26.7773 13.1016C27.1992 13.1016 27.4453 12.8555 27.4453 12.4453L27.4453 11.1211C27.4453 10.7109 27.1992 10.4648 26.7773 10.4648L25.4531 10.4648C25.043 10.4648 24.7969 10.7109 24.7969 11.1211L24.7969 12.4453C24.7969 12.8555 25.043 13.1016 25.4531 13.1016ZM30.3164 13.1016L31.6406 13.1016C32.0625 13.1016 32.3086 12.8555 32.3086 12.4453L32.3086 11.1211C32.3086 10.7109 32.0625 10.4648 31.6406 10.4648L30.3164 10.4648C29.9062 10.4648 29.6602 10.7109 29.6602 11.1211L29.6602 12.4453C29.6602 12.8555 29.9062 13.1016 30.3164 13.1016ZM6 17.9766L7.32422 17.9766C7.73438 17.9766 7.98047 17.7188 7.98047 17.3086L7.98047 15.9844C7.98047 15.5742 7.73438 15.3281 7.32422 15.3281L6 15.3281C5.58984 15.3281 5.34375 15.5742 5.34375 15.9844L5.34375 17.3086C5.34375 17.7188 5.58984 17.9766 6 17.9766ZM10.9805 17.9766L26.6602 17.9766C27.1523 17.9766 27.4453 17.6836 27.4453 17.1914L27.4453 16.1016C27.4453 15.6094 27.1523 15.3281 26.6602 15.3281L10.9805 15.3281C10.4883 15.3281 10.207 15.6094 10.207 16.1016L10.207 17.1914C10.207 17.6836 10.4883 17.9766 10.9805 17.9766ZM30.3164 17.9766L31.6406 17.9766C32.0625 17.9766 32.3086 17.7188 32.3086 17.3086L32.3086 15.9844C32.3086 15.5742 32.0625 15.3281 31.6406 15.3281L30.3164 15.3281C29.9062 15.3281 29.6602 15.5742 29.6602 15.9844L29.6602 17.3086C29.6602 17.7188 29.9062 17.9766 30.3164 17.9766Z" fill="black" fill-opacity="0.85"/>
 </g>
</svg>
