<?xml version="1.0" encoding="UTF-8"?>
<!DOCTYPE svg>
<svg version="1.1" xmlns="http://www.w3.org/2000/svg" xmlns:xlink="http://www.w3.org/1999/xlink" viewBox="0 0 38.0977 39.6211">
 <g>
  <rect height="39.6211" opacity="0" width="38.0977" x="0" y="0"/>
  <path d="M4.55859 31.6055L33.1875 31.6055C36.2109 31.6055 37.7461 30.0703 37.7461 27.082L37.7461 12.5039C37.7461 9.51562 36.2109 7.98047 33.1875 7.98047L4.55859 7.98047C1.52344 7.98047 0 9.50391 0 12.5039L0 27.082C0 30.082 1.52344 31.6055 4.55859 31.6055ZM4.60547 29.5312C2.96484 29.5312 2.07422 28.6523 2.07422 26.9766L2.07422 12.6094C2.07422 10.9336 2.96484 10.0664 4.60547 10.0664L33.1406 10.0664C34.7461 10.0664 35.6719 10.9336 35.6719 12.6094L35.6719 26.9766C35.6719 28.6523 34.7461 29.5312 33.1406 29.5312ZM6 16.2188L7.32422 16.2188C7.73438 16.2188 7.98047 15.9727 7.98047 15.5625L7.98047 14.2383C7.98047 13.8281 7.73438 13.5703 7.32422 13.5703L6 13.5703C5.58984 13.5703 5.34375 13.8281 5.34375 14.2383L5.34375 15.5625C5.34375 15.9727 5.58984 16.2188 6 16.2188ZM10.8633 16.2188L12.1875 16.2188C12.5977 16.2188 12.8555 15.9727 12.8555 15.5625L12.8555 14.2383C12.8555 13.8281 12.5977 13.5703 12.1875 13.5703L10.8633 13.5703C10.4531 13.5703 10.207 13.8281 10.207 14.2383L10.207 15.5625C10.207 15.9727 10.4531 16.2188 10.8633 16.2188ZM15.7266 16.2188L17.0508 16.2188C17.4609 16.2188 17.7188 15.9727 17.7188 15.5625L17.7188 14.2383C17.7188 13.8281 17.4609 13.5703 17.0508 13.5703L15.7266 13.5703C15.3164 13.5703 15.0703 13.8281 15.0703 14.2383L15.0703 15.5625C15.0703 15.9727 15.3164 16.2188 15.7266 16.2188ZM20.5898 16.2188L21.9141 16.2188C22.3242 16.2188 22.582 15.9727 22.582 15.5625L22.582 14.2383C22.582 13.8281 22.3242 13.5703 21.9141 13.5703L20.5898 13.5703C20.1797 13.5703 19.9336 13.8281 19.9336 14.2383L19.9336 15.5625C19.9336 15.9727 20.1797 16.2188 20.5898 16.2188ZM25.4531 16.2188L26.7773 16.2188C27.1992 16.2188 27.4453 15.9727 27.4453 15.5625L27.4453 14.2383C27.4453 13.8281 27.1992 13.5703 26.7773 13.5703L25.4531 13.5703C25.043 13.5703 24.7969 13.8281 24.7969 14.2383L24.7969 15.5625C24.7969 15.9727 25.043 16.2188 25.4531 16.2188ZM30.3164 16.2188L31.6406 16.2188C32.0625 16.2188 32.3086 15.9727 32.3086 15.5625L32.3086 14.2383C32.3086 13.8281 32.0625 13.5703 31.6406 13.5703L30.3164 13.5703C29.9062 13.5703 29.6602 13.8281 29.6602 14.2383L29.6602 15.5625C29.6602 15.9727 29.9062 16.2188 30.3164 16.2188ZM6 21.082L7.32422 21.082C7.73438 21.082 7.98047 20.8359 7.98047 20.4258L7.98047 19.1016C7.98047 18.6914 7.73438 18.4453 7.32422 18.4453L6 18.4453C5.58984 18.4453 5.34375 18.6914 5.34375 19.1016L5.34375 20.4258C5.34375 20.8359 5.58984 21.082 6 21.082ZM10.8633 21.082L12.1875 21.082C12.5977 21.082 12.8555 20.8359 12.8555 20.4258L12.8555 19.1016C12.8555 18.6914 12.5977 18.4453 12.1875 18.4453L10.8633 18.4453C10.4531 18.4453 10.207 18.6914 10.207 19.1016L10.207 20.4258C10.207 20.8359 10.4531 21.082 10.8633 21.082ZM15.7266 21.082L17.0508 21.082C17.4609 21.082 17.7188 20.8359 17.7188 20.4258L17.7188 19.1016C17.7188 18.6914 17.4609 18.4453 17.0508 18.4453L15.7266 18.4453C15.3164 18.4453 15.0703 18.6914 15.0703 19.1016L15.0703 20.4258C15.0703 20.8359 15.3164 21.082 15.7266 21.082ZM20.5898 21.082L21.9141 21.082C22.3242 21.082 22.582 20.8359 22.582 20.4258L22.582 19.1016C22.582 18.6914 22.3242 18.4453 21.9141 18.4453L20.5898 18.4453C20.1797 18.4453 19.9336 18.6914 19.9336 19.1016L19.9336 20.4258C19.9336 20.8359 20.1797 21.082 20.5898 21.082ZM25.4531 21.082L26.7773 21.082C27.1992 21.082 27.4453 20.8359 27.4453 20.4258L27.4453 19.1016C27.4453 18.6914 27.1992 18.4453 26.7773 18.4453L25.4531 18.4453C25.043 18.4453 24.7969 18.6914 24.7969 19.1016L24.7969 20.4258C24.7969 20.8359 25.043 21.082 25.4531 21.082ZM30.3164 21.082L31.6406 21.082C32.0625 21.082 32.3086 20.8359 32.3086 20.4258L32.3086 19.1016C32.3086 18.6914 32.0625 18.4453 31.6406 18.4453L30.3164 18.4453C29.9062 18.4453 29.6602 18.6914 29.6602 19.1016L29.6602 20.4258C29.6602 20.8359 29.9062 21.082 30.3164 21.082ZM6 25.957L7.32422 25.957C7.73438 25.957 7.98047 25.6992 7.98047 25.2891L7.98047 23.9648C7.98047 23.5547 7.73438 23.3086 7.32422 23.3086L6 23.3086C5.58984 23.3086 5.34375 23.5547 5.34375 23.9648L5.34375 25.2891C5.34375 25.6992 5.58984 25.957 6 25.957ZM10.9805 25.957L26.6602 25.957C27.1523 25.957 27.4453 25.6641 27.4453 25.1719L27.4453 24.082C27.4453 23.5898 27.1523 23.3086 26.6602 23.3086L10.9805 23.3086C10.4883 23.3086 10.207 23.5898 10.207 24.082L10.207 25.1719C10.207 25.6641 10.4883 25.957 10.9805 25.957ZM30.3164 25.957L31.6406 25.957C32.0625 25.957 32.3086 25.6992 32.3086 25.2891L32.3086 23.9648C32.3086 23.5547 32.0625 23.3086 31.6406 23.3086L30.3164 23.3086C29.9062 23.3086 29.6602 23.5547 29.6602 23.9648L29.6602 25.2891C29.6602 25.6992 29.9062 25.957 30.3164 25.957Z" fill="black" fill-opacity="1"/>
  <path d="M18.8789 39.6211C19.3711 39.6211 20.0039 39.3516 20.5195 39.1758L28.6289 36.0938C29.1328 35.918 29.3203 35.4727 29.3203 35.1797C29.3203 34.5703 28.8867 34.0547 28.207 34.0547C27.9023 34.0547 27.4453 34.2305 27.1523 34.3359L18.1172 37.793L19.6523 37.793L10.6055 34.3359C10.3125 34.2305 9.87891 34.0547 9.55078 34.0547C8.91797 34.0547 8.44922 34.5469 8.44922 35.1797C8.44922 35.4727 8.625 35.918 9.12891 36.0938L17.25 39.1758C17.7773 39.3633 18.3867 39.6211 18.8789 39.6211Z" fill="black" fill-opacity="1"/>
 </g>
</svg>
