<?xml version="1.0" encoding="UTF-8"?>
<!DOCTYPE svg>
<svg version="1.1" xmlns="http://www.w3.org/2000/svg" xmlns:xlink="http://www.w3.org/1999/xlink" viewBox="0 0 25.9453 15.4336">
 <g>
  <rect height="15.4336" opacity="0" width="25.9453" x="0" y="0"/>
  <path d="M0.351562 12.4336C0.140625 12.6445 0 12.9375 0 13.2656C0 13.9336 0.503906 14.4375 1.17188 14.4375C1.48828 14.4375 1.79297 14.3203 1.99219 14.0977L13.5234 2.12109L12.082 2.12109L23.5898 14.0977C23.8008 14.3203 24.1172 14.4375 24.4219 14.4375C25.0898 14.4375 25.5938 13.9336 25.5938 13.2656C25.5938 12.9375 25.4648 12.6562 25.2422 12.4336L13.6875 0.398438C13.4531 0.152344 13.1367 0 12.7969 0C12.457 0 12.1523 0.140625 11.9062 0.398438Z" fill="black" fill-opacity="1"/>
 </g>
</svg>
