<?xml version="1.0" encoding="UTF-8"?>
<!DOCTYPE svg>
<svg version="1.1" xmlns="http://www.w3.org/2000/svg" xmlns:xlink="http://www.w3.org/1999/xlink" viewBox="0 0 25.9453 15.5508">
 <g>
  <rect height="15.5508" opacity="0" width="25.9453" x="0" y="0"/>
  <path d="M12.7969 15.5508C13.1367 15.5508 13.4531 15.3984 13.6875 15.1406L25.2422 3.10547C25.4648 2.88281 25.5938 2.60156 25.5938 2.27344C25.5938 1.61719 25.0898 1.11328 24.4219 1.11328C24.1172 1.11328 23.8125 1.23047 23.5898 1.44141L12.082 13.418L13.5234 13.418L1.99219 1.44141C1.78125 1.23047 1.48828 1.11328 1.17188 1.11328C0.503906 1.11328 0 1.61719 0 2.27344C0 2.60156 0.140625 2.88281 0.351562 3.11719L11.9062 15.1523C12.1641 15.3984 12.457 15.5508 12.7969 15.5508Z" fill="black" fill-opacity="1"/>
 </g>
</svg>
