<?xml version="1.0" encoding="UTF-8"?>
<!DOCTYPE svg>
<svg version="1.1" xmlns="http://www.w3.org/2000/svg" xmlns:xlink="http://www.w3.org/1999/xlink" viewBox="0 0 32.7656 28.0664">
 <g>
  <rect height="28.0664" opacity="0" width="32.7656" x="0" y="0"/>
  <path d="M11.3555 27.8203L21.0586 27.8203C22.9922 27.8203 24.0586 26.6719 24.0586 24.832L24.0586 17.8008L30.457 17.8008C31.5703 17.8008 32.4141 17.1328 32.4141 16.1016C32.4141 15.457 32.0977 14.9766 31.5938 14.4727L18.0117 0.902344C17.3789 0.28125 16.8281 0 16.207 0C15.5859 0 15.0352 0.28125 14.4141 0.902344L0.820312 14.4727C0.292969 15.0117 0 15.457 0 16.1016C0 17.1328 0.855469 17.8008 1.95703 17.8008L8.35547 17.8008L8.35547 24.832C8.35547 26.6719 9.43359 27.8203 11.3555 27.8203ZM11.5547 25.8164C10.9336 25.8164 10.5117 25.3945 10.5117 24.7852L10.5117 16.3242C10.5117 15.9727 10.3711 15.8438 10.0312 15.8438L2.94141 15.8438C2.78906 15.8438 2.71875 15.7852 2.71875 15.6914C2.71875 15.6094 2.74219 15.5508 2.83594 15.457L15.7617 2.58984C15.9492 2.40234 16.0664 2.34375 16.207 2.34375C16.3477 2.34375 16.4766 2.40234 16.6523 2.58984L29.5781 15.457C29.6719 15.5508 29.6953 15.6094 29.6953 15.6914C29.6953 15.7852 29.625 15.8438 29.4727 15.8438L22.3945 15.8438C22.043 15.8438 21.9141 15.9727 21.9141 16.3242L21.9141 24.7852C21.9141 25.3828 21.4688 25.8164 20.8711 25.8164Z" fill="black" fill-opacity="1"/>
 </g>
</svg>
