<?xml version="1.0" encoding="UTF-8"?>
<!DOCTYPE svg>
<svg version="1.1" xmlns="http://www.w3.org/2000/svg" xmlns:xlink="http://www.w3.org/1999/xlink" viewBox="0 0 32.7656 28.0664">
 <g>
  <rect height="28.0664" opacity="0" width="32.7656" x="0" y="0"/>
  <path d="M11.3555 27.8203L21.0586 27.8203C22.9922 27.8203 24.0586 26.6719 24.0586 24.832L24.0586 17.8008L30.457 17.8008C31.5703 17.8008 32.4141 17.1328 32.4141 16.1016C32.4141 15.457 32.0977 14.9766 31.5938 14.4727L18.0117 0.902344C17.3789 0.28125 16.8281 0 16.207 0C15.5859 0 15.0352 0.28125 14.4141 0.902344L0.820312 14.4727C0.292969 15.0117 0 15.457 0 16.1016C0 17.1328 0.855469 17.8008 1.95703 17.8008L8.35547 17.8008L8.35547 24.832C8.35547 26.6719 9.43359 27.8203 11.3555 27.8203Z" fill="black" fill-opacity="1"/>
 </g>
</svg>
