<?xml version="1.0" encoding="UTF-8"?>
<!DOCTYPE svg>
<svg version="1.1" xmlns="http://www.w3.org/2000/svg" xmlns:xlink="http://www.w3.org/1999/xlink" viewBox="0 0 33.4219 27.5742">
 <g>
  <rect height="27.5742" opacity="0" width="33.4219" x="0" y="0"/>
  <path d="M27.7383 27.5742C30.7617 27.5742 32.3086 26.0625 32.3086 23.0625L32.3086 4.54688C32.3086 1.54688 30.7617 0.0351562 27.7383 0.0351562L14.7305 0.0351562C12.9961 0.0351562 11.5664 0.445312 10.3711 1.69922L1.35938 11.0039C0.410156 11.9766 0 12.8438 0 13.7695C0 14.6953 0.398438 15.5742 1.35938 16.5469L10.3828 25.7461C11.5781 26.9883 13.0078 27.5625 14.7422 27.5625ZM27.7031 25.5L14.707 25.5C13.5352 25.5 12.75 25.1719 11.9297 24.3281L2.96484 15.1758C2.42578 14.6133 2.25 14.2148 2.25 13.7695C2.25 13.3242 2.4375 12.9258 2.96484 12.375L11.918 3.12891C12.7266 2.28516 13.5352 2.10938 14.6953 2.10938L27.7031 2.10938C29.332 2.10938 30.2227 2.97656 30.2227 4.65234L30.2227 22.957C30.2227 24.6328 29.332 25.5 27.7031 25.5Z" fill="black" fill-opacity="1"/>
  <path d="M13.6641 20.0977C13.957 20.0977 14.2148 19.9805 14.4258 19.7695L18.8906 15.2812L23.3789 19.7695C23.5781 19.9688 23.8359 20.0977 24.1289 20.0977C24.7148 20.0977 25.1836 19.6172 25.1836 19.043C25.1836 18.75 25.0664 18.5039 24.8555 18.293L20.3789 13.8164L24.8672 9.30469C25.0898 9.08203 25.1953 8.85938 25.1953 8.56641C25.1953 7.99219 24.7266 7.53516 24.1406 7.53516C23.8711 7.53516 23.6367 7.62891 23.4141 7.86328L18.8906 12.3516L14.4023 7.875C14.1914 7.65234 13.957 7.55859 13.6641 7.55859C13.0781 7.55859 12.6094 8.00391 12.6094 8.57812C12.6094 8.87109 12.7266 9.11719 12.9375 9.31641L17.4258 13.8164L12.9375 18.3047C12.7266 18.5039 12.6094 18.7617 12.6094 19.043C12.6094 19.6172 13.0781 20.0977 13.6641 20.0977Z" fill="black" fill-opacity="1"/>
 </g>
</svg>
