<?xml version="1.0" encoding="UTF-8"?>
<!DOCTYPE svg>
<svg version="1.1" xmlns="http://www.w3.org/2000/svg" xmlns:xlink="http://www.w3.org/1999/xlink" viewBox="0 0 31.9219 28.9805">
 <g>
  <rect height="28.9805" opacity="0" width="31.9219" x="0" y="0"/>
  <path d="M10.1836 27.4453C10.8633 27.4453 11.3086 26.9766 11.3086 26.3203C11.3086 25.9922 11.2031 25.7344 11.0039 25.5352L6.375 20.9883L2.73047 17.7773L2.50781 18.3516L6.91406 18.5156L26.8711 18.5156C30.1406 18.5156 31.5703 16.9688 31.5703 13.7461L31.5703 4.69922C31.5703 1.42969 30.1406 0 26.8711 0L17.9062 0C17.2031 0 16.7461 0.503906 16.7461 1.13672C16.7461 1.75781 17.2031 2.27344 17.8945 2.27344L26.8711 2.27344C28.5234 2.27344 29.2969 3.04688 29.2969 4.69922L29.2969 13.7461C29.2969 15.4688 28.5117 16.2422 26.8711 16.2422L6.91406 16.2422L2.50781 16.418L2.73047 16.9805L6.375 13.7695L11.0039 9.22266C11.2031 9.02344 11.3086 8.76562 11.3086 8.4375C11.3086 7.78125 10.8633 7.3125 10.1836 7.3125C9.90234 7.3125 9.57422 7.45312 9.35156 7.66406L0.375 16.5352C0.117188 16.7695 0 17.0625 0 17.3789C0 17.6953 0.117188 17.9883 0.375 18.2344L9.35156 27.0938C9.57422 27.3164 9.90234 27.4453 10.1836 27.4453Z" fill="black" fill-opacity="1"/>
 </g>
</svg>
