<?xml version="1.0" encoding="UTF-8"?>
<!DOCTYPE svg>
<svg version="1.1" xmlns="http://www.w3.org/2000/svg" xmlns:xlink="http://www.w3.org/1999/xlink" viewBox="0 0 33.4219 27.5742">
 <g>
  <rect height="27.5742" opacity="0" width="33.4219" x="0" y="0"/>
  <path d="M32.3086 4.54688L32.3086 23.0625C32.3086 26.0625 30.7617 27.5742 27.7383 27.5742L14.7422 27.5625C13.0078 27.5625 11.5781 26.9883 10.3828 25.7461L1.35938 16.5469C0.398438 15.5742 0 14.6953 0 13.7695C0 12.8438 0.410156 11.9766 1.35938 11.0039L10.3711 1.69922C11.5664 0.445312 12.9961 0.0351562 14.7305 0.0351562L27.7383 0.0351562C30.7617 0.0351562 32.3086 1.54688 32.3086 4.54688ZM23.25 7.96875L18.8906 12.3047L14.5547 7.98047C14.3438 7.78125 14.1094 7.66406 13.8047 7.66406C13.207 7.66406 12.7266 8.12109 12.7266 8.73047C12.7266 9.01172 12.8438 9.28125 13.0547 9.49219L17.3672 13.8164L13.0547 18.1406C12.8438 18.3516 12.7266 18.6094 12.7266 18.9023C12.7266 19.5 13.207 19.9805 13.8047 19.9805C14.1094 19.9805 14.3789 19.875 14.5898 19.6523L18.8906 15.3281L23.2031 19.6523C23.4023 19.875 23.6836 19.9805 23.9883 19.9805C24.5859 19.9805 25.0664 19.5 25.0664 18.9023C25.0664 18.5977 24.9727 18.3398 24.75 18.1289L20.4258 13.8164L24.7617 9.48047C24.9961 9.24609 25.0781 9 25.0781 8.70703C25.0781 8.10938 24.5977 7.64062 24.0117 7.64062C23.7188 7.64062 23.4727 7.74609 23.25 7.96875Z" fill="black" fill-opacity="1"/>
 </g>
</svg>
