<?xml version="1.0" encoding="UTF-8"?>
<!DOCTYPE svg>
<svg version="1.1" xmlns="http://www.w3.org/2000/svg" xmlns:xlink="http://www.w3.org/1999/xlink" viewBox="0 0 32.7188 27.5742">
 <g>
  <rect height="27.5742" opacity="0" width="32.7188" x="0" y="0"/>
  <path d="M4.98047 27.5742L17.9766 27.5625C19.7109 27.5625 21.1406 26.9883 22.3359 25.7461L31.3594 16.5469C32.3203 15.5742 32.7188 14.6953 32.7188 13.7695C32.7188 12.8438 32.3086 11.9766 31.3594 11.0039L22.3477 1.69922C21.1523 0.445312 19.7227 0.0351562 17.9883 0.0351562L4.98047 0.0351562C1.95703 0.0351562 0.410156 1.54688 0.410156 4.54688L0.410156 23.0625C0.410156 26.0625 1.95703 27.5742 4.98047 27.5742ZM5.01562 25.5C3.38672 25.5 2.49609 24.6328 2.49609 22.957L2.49609 4.65234C2.49609 2.97656 3.38672 2.10938 5.01562 2.10938L18.0234 2.10938C19.1836 2.10938 19.9922 2.28516 20.8008 3.12891L29.7539 12.375C30.2812 12.9258 30.4688 13.3242 30.4688 13.7695C30.4688 14.2148 30.293 14.6133 29.7539 15.1758L20.7891 24.3281C19.9688 25.1719 19.1836 25.5 18.0117 25.5Z" fill="black" fill-opacity="1"/>
  <path d="M8.60156 20.0977C8.90625 20.0977 9.15234 19.9805 9.36328 19.7695L13.8398 15.2812L18.3164 19.7695C18.5273 19.9688 18.7734 20.0977 19.0781 20.0977C19.6523 20.0977 20.1211 19.6172 20.1211 19.043C20.1211 18.75 20.0156 18.5039 19.8047 18.293L15.3164 13.8164L19.8164 9.30469C20.0391 9.08203 20.1328 8.85938 20.1328 8.56641C20.1328 7.99219 19.6641 7.53516 19.0898 7.53516C18.8086 7.53516 18.5859 7.62891 18.3516 7.86328L13.8398 12.3516L9.33984 7.875C9.12891 7.65234 8.90625 7.55859 8.60156 7.55859C8.02734 7.55859 7.55859 8.00391 7.55859 8.57812C7.55859 8.87109 7.66406 9.11719 7.875 9.31641L12.3633 13.8164L7.875 18.3047C7.66406 18.5039 7.55859 18.7617 7.55859 19.043C7.55859 19.6172 8.02734 20.0977 8.60156 20.0977Z" fill="black" fill-opacity="1"/>
 </g>
</svg>
