<?xml version="1.0" encoding="UTF-8"?>
<!DOCTYPE svg>
<svg version="1.1" xmlns="http://www.w3.org/2000/svg" xmlns:xlink="http://www.w3.org/1999/xlink" viewBox="0 0 31.9453 31.2773">
 <g>
  <rect height="31.2773" opacity="0" width="31.9453" x="0" y="0"/>
  <path d="M10.3242 22.0664L21.2695 22.0664C22.8633 22.0664 23.6484 21.293 23.6484 19.6992L23.6484 16.1367L29.5898 16.1367C30.7148 16.1367 31.5938 15.457 31.5938 14.4258C31.5938 13.7812 31.2773 13.2773 30.668 12.75L17.5898 1.21875C16.9219 0.632812 16.418 0.304688 15.7969 0.304688C15.1758 0.304688 14.6719 0.632812 14.0039 1.21875L0.925781 12.7617C0.292969 13.3125 0 13.7812 0 14.4258C0 15.457 0.878906 16.1367 2.00391 16.1367L7.94531 16.1367L7.94531 19.6992C7.94531 21.293 8.73047 22.0664 10.3242 22.0664ZM10.207 31.2773L21.3867 31.2773C22.8047 31.2773 23.6484 30.4453 23.6484 29.0273L23.6484 26.8242C23.6484 25.418 22.8047 24.5742 21.3867 24.5742L10.207 24.5742C8.78906 24.5742 7.94531 25.418 7.94531 26.8242L7.94531 29.0273C7.94531 30.4453 8.78906 31.2773 10.207 31.2773Z" fill="black" fill-opacity="1"/>
 </g>
</svg>
