<?xml version="1.0" encoding="UTF-8"?>
<!DOCTYPE svg>
<svg version="1.1" xmlns="http://www.w3.org/2000/svg" xmlns:xlink="http://www.w3.org/1999/xlink" viewBox="0 0 29.6367 29.5664">
 <g>
  <rect height="29.5664" opacity="0" width="29.6367" x="0" y="0"/>
  <path d="M0 11.8594C0 18.3867 5.32031 23.707 11.8594 23.707C14.4961 23.707 16.9219 22.8398 18.8906 21.375L26.6133 29.1094C26.9062 29.4141 27.3164 29.5664 27.7383 29.5664C28.6641 29.5664 29.2852 28.8633 29.2852 27.9844C29.2852 27.5508 29.1328 27.1758 28.8516 26.8828L21.1641 19.1602C22.7578 17.1562 23.7188 14.6133 23.7188 11.8594C23.7188 5.32031 18.3984 0 11.8594 0C5.32031 0 0 5.32031 0 11.8594ZM2.19141 11.8594C2.19141 6.52734 6.52734 2.19141 11.8594 2.19141C17.1914 2.19141 21.5156 6.52734 21.5156 11.8594C21.5156 17.1797 17.1914 21.5156 11.8594 21.5156C6.52734 21.5156 2.19141 17.1797 2.19141 11.8594Z" fill="black" fill-opacity="1"/>
 </g>
</svg>
