<?xml version="1.0" encoding="UTF-8"?>
<!DOCTYPE svg>
<svg version="1.1" xmlns="http://www.w3.org/2000/svg" xmlns:xlink="http://www.w3.org/1999/xlink" viewBox="0 0 30.8789 30.5508">
 <g>
  <rect height="30.5508" opacity="0" width="30.8789" x="0" y="0"/>
  <path d="M15.2578 29.8477C19.3477 29.8477 22.793 23.7656 22.793 15.3047C22.793 6.80859 19.3594 0.714844 15.2578 0.714844C11.168 0.714844 7.72266 6.80859 7.72266 15.3047C7.72266 23.7656 11.1797 29.8477 15.2578 29.8477ZM15.2578 2.29688C18.3164 2.29688 21.0352 8.22656 21.0352 15.3047C21.0352 22.1953 18.3164 28.2656 15.2578 28.2656C12.2109 28.2656 9.48047 22.1953 9.48047 15.3047C9.48047 8.22656 12.2109 2.29688 15.2578 2.29688ZM14.4023 0.9375L14.4023 29.543L16.125 29.543L16.125 0.9375ZM15.2578 21.1758C10.6523 21.1758 6.59766 22.3828 4.47656 24.2578L5.78906 25.3359C7.82812 23.7773 11.0977 22.8984 15.2578 22.8984C19.4297 22.8984 22.6992 23.7773 24.7383 25.3359L26.0508 24.2578C23.9297 22.3828 19.875 21.1758 15.2578 21.1758ZM29.2852 14.4023L1.24219 14.4023L1.24219 16.125L29.2852 16.125ZM15.2578 9.43359C19.875 9.43359 23.9297 8.22656 26.0508 6.35156L24.7383 5.27344C22.6992 6.83203 19.4297 7.71094 15.2578 7.71094C11.0977 7.71094 7.82812 6.83203 5.78906 5.27344L4.47656 6.35156C6.59766 8.22656 10.6523 9.43359 15.2578 9.43359ZM15.2578 30.5273C23.6836 30.5273 30.5273 23.6953 30.5273 15.2695C30.5273 6.84375 23.6836 0 15.2578 0C6.83203 0 0 6.84375 0 15.2695C0 23.6953 6.83203 30.5273 15.2578 30.5273ZM15.2578 28.7461C7.81641 28.7461 1.78125 22.7109 1.78125 15.2695C1.78125 7.81641 7.81641 1.78125 15.2578 1.78125C22.7109 1.78125 28.7461 7.81641 28.7461 15.2695C28.7461 22.7109 22.7109 28.7461 15.2578 28.7461Z" fill="black" fill-opacity="1"/>
 </g>
</svg>
