<?xml version="1.0" encoding="UTF-8"?>
<!DOCTYPE svg>
<svg version="1.1" xmlns="http://www.w3.org/2000/svg" xmlns:xlink="http://www.w3.org/1999/xlink" viewBox="0 0 25.9336 26.1914">
 <g>
  <rect height="26.1914" opacity="0" width="25.9336" x="0" y="0"/>
  <path d="M9.48047 26.1914C10.0312 26.1914 10.4414 25.9453 10.7461 25.5L25.2539 2.75391C25.4883 2.39062 25.582 2.10938 25.582 1.82812C25.582 1.11328 25.1133 0.644531 24.3984 0.644531C23.9062 0.644531 23.6133 0.820312 23.3203 1.30078L9.42188 23.2617L2.32031 14.2383C2.00391 13.8047 1.69922 13.6172 1.21875 13.6172C0.503906 13.6172 0 14.1094 0 14.8125C0 15.1172 0.117188 15.4336 0.375 15.75L8.16797 25.4766C8.55469 25.9688 8.94141 26.1914 9.48047 26.1914Z" fill="black" fill-opacity="1"/>
 </g>
</svg>
