<?xml version="1.0" encoding="UTF-8"?>
<!DOCTYPE svg>
<svg version="1.1" xmlns="http://www.w3.org/2000/svg" xmlns:xlink="http://www.w3.org/1999/xlink" viewBox="0 0 32.7188 27.5742">
 <g>
  <rect height="27.5742" opacity="0" width="32.7188" x="0" y="0"/>
  <path d="M22.3477 1.69922L31.3594 11.0039C32.3086 11.9766 32.7188 12.8438 32.7188 13.7695C32.7188 14.6953 32.3203 15.5742 31.3594 16.5469L22.3359 25.7461C21.1406 26.9883 19.7109 27.5625 17.9766 27.5625L4.98047 27.5742C1.95703 27.5742 0.410156 26.0625 0.410156 23.0625L0.410156 4.54688C0.410156 1.54688 1.95703 0.0351562 4.98047 0.0351562L17.9883 0.0351562C19.7227 0.0351562 21.1523 0.445312 22.3477 1.69922ZM18.1992 7.96875L13.8516 12.3047L9.51562 7.98047C9.29297 7.78125 9.05859 7.66406 8.75391 7.66406C8.15625 7.66406 7.6875 8.12109 7.6875 8.73047C7.6875 9.01172 7.79297 9.28125 8.00391 9.49219L12.3281 13.8164L8.00391 18.1406C7.79297 18.3516 7.6875 18.6094 7.6875 18.9023C7.6875 19.5 8.15625 19.9805 8.75391 19.9805C9.05859 19.9805 9.32812 19.875 9.55078 19.6523L13.8516 15.3281L18.1523 19.6523C18.3633 19.875 18.6328 19.9805 18.9375 19.9805C19.5469 19.9805 20.0156 19.5 20.0156 18.9023C20.0156 18.5977 19.9219 18.3398 19.6992 18.1289L15.375 13.8164L19.7109 9.48047C19.9453 9.24609 20.0273 9 20.0273 8.70703C20.0273 8.10938 19.5586 7.64062 18.9609 7.64062C18.668 7.64062 18.4336 7.74609 18.1992 7.96875Z" fill="black" fill-opacity="1"/>
 </g>
</svg>
